<svg width="100" height="168" viewBox="0 0 100 168" fill="none" xmlns="http://www.w3.org/2000/svg">
<g filter="url(#filter0_di_1_457)">
<path d="M99.5 0.87822C100.671 2.04967 100.671 3.94896 99.5 5.12041L67.1716 37.4488C66.4214 38.199 66 39.2164 66 40.2773V102.565C65.9999 105.3 64.9813 107.93 63.1543 109.948L62.7783 110.343L44.3477 128.772C43.2948 129.825 43 131.39 43 132.879C42.9998 137.297 39.4182 140.879 35 140.879C30.5818 140.879 27.0002 137.297 27 132.879C27 128.461 30.5817 124.879 35 124.879C35.3299 124.879 35.6552 124.899 35.9746 124.938C37.7306 125.151 39.6561 124.979 40.9068 123.728L58.5352 106.1L58.7061 105.92C59.5364 105.003 59.9999 103.808 60 102.565L60 44.3782C60 42.1691 58.2091 40.3782 56 40.3782H45.4954C43.7675 40.3782 42.3073 41.5634 41.2208 42.9069C39.7548 44.7198 37.5132 45.8792 35 45.8792C30.5818 45.8792 27.0002 42.2973 27 37.8792C27 33.4609 30.5817 29.8792 35 29.8792C37.2668 29.8792 39.313 30.822 40.7684 32.3369C41.8281 33.4399 43.1648 34.3782 44.6944 34.3782H60.101C61.1618 34.3782 62.1792 33.9568 62.9294 33.2066L95.2578 0.878219C96.4293 -0.293228 98.3286 -0.293228 99.5 0.87822Z" fill="#110A2B" fill-opacity="0.25" shape-rendering="crispEdges"/>
</g>
<g opacity="0.6">
<mask id="path-2-inside-1_1_457" fill="white">
<path d="M30 38C30 35.2386 32.2386 33 35 33C37.7614 33 40 35.2386 40 38C40 40.7614 37.7614 43 35 43C32.2386 43 30 40.7614 30 38Z"/>
</mask>
<path d="M30 38C30 35.2386 32.2386 33 35 33C37.7614 33 40 35.2386 40 38C40 40.7614 37.7614 43 35 43C32.2386 43 30 40.7614 30 38Z" fill="#563EEA"/>
<path d="M30 38C30 35.2386 32.2386 33 35 33C37.7614 33 40 35.2386 40 38C40 40.7614 37.7614 43 35 43C32.2386 43 30 40.7614 30 38Z" fill="url(#paint0_radial_1_457)" style="mix-blend-mode:overlay"/>
<path d="M30 38C30 35.2386 32.2386 33 35 33C37.7614 33 40 35.2386 40 38C40 40.7614 37.7614 43 35 43C32.2386 43 30 40.7614 30 38Z" fill="url(#paint1_radial_1_457)" fill-opacity="0.2"/>
<path d="M30 37C30 34.2386 32.2386 32 35 32C37.7614 32 40 34.2386 40 37V38C40 35.7909 37.7614 34 35 34C32.2386 34 30 35.7909 30 38V37ZM40 39C40 41.7614 37.7614 44 35 44C32.2386 44 30 41.7614 30 39V38C30 40.2091 32.2386 42 35 42C37.7614 42 40 40.2091 40 38V39ZM30 43V33V43ZM40 33V43V33Z" fill="white" fill-opacity="0.15" mask="url(#path-2-inside-1_1_457)"/>
</g>
<g filter="url(#filter1_f_1_457)">
<mask id="path-4-inside-2_1_457" fill="white">
<path d="M28 133C28 129.134 31.134 126 35 126C38.866 126 42 129.134 42 133C42 136.866 38.866 140 35 140C31.134 140 28 136.866 28 133Z"/>
</mask>
<path d="M28 133C28 129.134 31.134 126 35 126C38.866 126 42 129.134 42 133C42 136.866 38.866 140 35 140C31.134 140 28 136.866 28 133Z" fill="#563EEA"/>
<path d="M28 133C28 129.134 31.134 126 35 126C38.866 126 42 129.134 42 133C42 136.866 38.866 140 35 140C31.134 140 28 136.866 28 133Z" fill="url(#paint2_radial_1_457)" style="mix-blend-mode:overlay"/>
<path d="M28 133C28 129.134 31.134 126 35 126C38.866 126 42 129.134 42 133C42 136.866 38.866 140 35 140C31.134 140 28 136.866 28 133Z" fill="url(#paint3_radial_1_457)" fill-opacity="0.2"/>
<path d="M28 132C28 128.134 31.134 125 35 125C38.866 125 42 128.134 42 132V133C42 129.686 38.866 127 35 127C31.134 127 28 129.686 28 133V132ZM42 134C42 137.866 38.866 141 35 141C31.134 141 28 137.866 28 134V133C28 136.314 31.134 139 35 139C38.866 139 42 136.314 42 133V134ZM28 140V126V140ZM42 126V140V126Z" fill="white" fill-opacity="0.15" mask="url(#path-4-inside-2_1_457)"/>
</g>
<mask id="path-6-inside-3_1_457" fill="white">
<path d="M30 133C30 130.239 32.2386 128 35 128C37.7614 128 40 130.239 40 133C40 135.761 37.7614 138 35 138C32.2386 138 30 135.761 30 133Z"/>
</mask>
<path d="M30 133C30 130.239 32.2386 128 35 128C37.7614 128 40 130.239 40 133C40 135.761 37.7614 138 35 138C32.2386 138 30 135.761 30 133Z" fill="#563EEA"/>
<path d="M30 133C30 130.239 32.2386 128 35 128C37.7614 128 40 130.239 40 133C40 135.761 37.7614 138 35 138C32.2386 138 30 135.761 30 133Z" fill="url(#paint4_radial_1_457)" style="mix-blend-mode:overlay"/>
<path d="M30 133C30 130.239 32.2386 128 35 128C37.7614 128 40 130.239 40 133C40 135.761 37.7614 138 35 138C32.2386 138 30 135.761 30 133Z" fill="url(#paint5_radial_1_457)" fill-opacity="0.2"/>
<path d="M30 132C30 129.239 32.2386 127 35 127C37.7614 127 40 129.239 40 132V133C40 130.791 37.7614 129 35 129C32.2386 129 30 130.791 30 133V132ZM40 134C40 136.761 37.7614 139 35 139C32.2386 139 30 136.761 30 134V133C30 135.209 32.2386 137 35 137C37.7614 137 40 135.209 40 133V134ZM30 138V128V138ZM40 128V138V128Z" fill="white" fill-opacity="0.15" mask="url(#path-6-inside-3_1_457)"/>
<g filter="url(#filter2_f_1_457)">
<path d="M60 47C60 45.3431 61.3431 44 63 44C64.6569 44 66 45.3431 66 47V72C66 73.6569 64.6569 75 63 75C61.3431 75 60 73.6569 60 72V47Z" fill="#8765E4"/>
</g>
<mask id="path-9-inside-4_1_457" fill="white">
<path d="M61 50C61 48.8954 61.8954 48 63 48C64.1046 48 65 48.8954 65 50V66C65 67.1046 64.1046 68 63 68C61.8954 68 61 67.1046 61 66V50Z"/>
</mask>
<path d="M61 50C61 48.8954 61.8954 48 63 48C64.1046 48 65 48.8954 65 50V66C65 67.1046 64.1046 68 63 68C61.8954 68 61 67.1046 61 66V50Z" fill="#7F53F6"/>
<path d="M61 50C61 48.8954 61.8954 48 63 48C64.1046 48 65 48.8954 65 50V66C65 67.1046 64.1046 68 63 68C61.8954 68 61 67.1046 61 66V50Z" fill="url(#paint6_radial_1_457)" style="mix-blend-mode:overlay"/>
<path d="M61 50C61 48.8954 61.8954 48 63 48C64.1046 48 65 48.8954 65 50V66C65 67.1046 64.1046 68 63 68C61.8954 68 61 67.1046 61 66V50Z" fill="url(#paint7_radial_1_457)" fill-opacity="0.2"/>
<path d="M61 49C61 47.8954 61.8954 47 63 47C64.1046 47 65 47.8954 65 49V50C65 49.4477 64.1046 49 63 49C61.8954 49 61 49.4477 61 50V49ZM65 67C65 68.1046 64.1046 69 63 69C61.8954 69 61 68.1046 61 67V66C61 66.5523 61.8954 67 63 67C64.1046 67 65 66.5523 65 66V67ZM61 68V48V68ZM65 48V68V48Z" fill="white" fill-opacity="0.15" mask="url(#path-9-inside-4_1_457)"/>
<defs>
<filter id="filter0_di_1_457" x="27" y="-0.000366211" width="75.3786" height="142.88" filterUnits="userSpaceOnUse" color-interpolation-filters="sRGB">
<feFlood flood-opacity="0" result="BackgroundImageFix"/>
<feColorMatrix in="SourceAlpha" type="matrix" values="0 0 0 0 0 0 0 0 0 0 0 0 0 0 0 0 0 0 127 0" result="hardAlpha"/>
<feOffset dx="1" dy="1"/>
<feGaussianBlur stdDeviation="0.5"/>
<feComposite in2="hardAlpha" operator="out"/>
<feColorMatrix type="matrix" values="0 0 0 0 1 0 0 0 0 1 0 0 0 0 1 0 0 0 0.08 0"/>
<feBlend mode="normal" in2="BackgroundImageFix" result="effect1_dropShadow_1_457"/>
<feBlend mode="normal" in="SourceGraphic" in2="effect1_dropShadow_1_457" result="shape"/>
<feColorMatrix in="SourceAlpha" type="matrix" values="0 0 0 0 0 0 0 0 0 0 0 0 0 0 0 0 0 0 127 0" result="hardAlpha"/>
<feOffset dx="1"/>
<feGaussianBlur stdDeviation="1.5"/>
<feComposite in2="hardAlpha" operator="arithmetic" k2="-1" k3="1"/>
<feColorMatrix type="matrix" values="0 0 0 0 0.00547059 0 0 0 0 0.0187459 0 0 0 0 0.116098 0 0 0 0.6 0"/>
<feBlend mode="normal" in2="shape" result="effect2_innerShadow_1_457"/>
</filter>
<filter id="filter1_f_1_457" x="0.299999" y="98.3" width="69.4" height="69.4" filterUnits="userSpaceOnUse" color-interpolation-filters="sRGB">
<feFlood flood-opacity="0" result="BackgroundImageFix"/>
<feBlend mode="normal" in="SourceGraphic" in2="BackgroundImageFix" result="shape"/>
<feGaussianBlur stdDeviation="13.85" result="effect1_foregroundBlur_1_457"/>
</filter>
<filter id="filter2_f_1_457" x="43.3" y="27.3" width="39.4" height="64.4" filterUnits="userSpaceOnUse" color-interpolation-filters="sRGB">
<feFlood flood-opacity="0" result="BackgroundImageFix"/>
<feBlend mode="normal" in="SourceGraphic" in2="BackgroundImageFix" result="shape"/>
<feGaussianBlur stdDeviation="8.35" result="effect1_foregroundBlur_1_457"/>
</filter>
<radialGradient id="paint0_radial_1_457" cx="0" cy="0" r="1" gradientUnits="userSpaceOnUse" gradientTransform="translate(35 40.8261) rotate(90) scale(8.47826 64.7434)">
<stop stop-color="white"/>
<stop offset="1" stop-color="white" stop-opacity="0"/>
</radialGradient>
<radialGradient id="paint1_radial_1_457" cx="0" cy="0" r="1" gradientUnits="userSpaceOnUse" gradientTransform="translate(35 41.0435) rotate(90) scale(3.04348 11.6667)">
<stop stop-color="white"/>
<stop offset="1" stop-color="white" stop-opacity="0"/>
</radialGradient>
<radialGradient id="paint2_radial_1_457" cx="0" cy="0" r="1" gradientUnits="userSpaceOnUse" gradientTransform="translate(35 136.957) rotate(90) scale(11.8696 90.6407)">
<stop stop-color="white"/>
<stop offset="1" stop-color="white" stop-opacity="0"/>
</radialGradient>
<radialGradient id="paint3_radial_1_457" cx="0" cy="0" r="1" gradientUnits="userSpaceOnUse" gradientTransform="translate(35 137.261) rotate(90) scale(4.26087 16.3333)">
<stop stop-color="white"/>
<stop offset="1" stop-color="white" stop-opacity="0"/>
</radialGradient>
<radialGradient id="paint4_radial_1_457" cx="0" cy="0" r="1" gradientUnits="userSpaceOnUse" gradientTransform="translate(35 135.826) rotate(90) scale(8.47826 64.7434)">
<stop stop-color="white"/>
<stop offset="1" stop-color="white" stop-opacity="0"/>
</radialGradient>
<radialGradient id="paint5_radial_1_457" cx="0" cy="0" r="1" gradientUnits="userSpaceOnUse" gradientTransform="translate(35 136.043) rotate(90) scale(3.04348 11.6667)">
<stop stop-color="white"/>
<stop offset="1" stop-color="white" stop-opacity="0"/>
</radialGradient>
<radialGradient id="paint6_radial_1_457" cx="0" cy="0" r="1" gradientUnits="userSpaceOnUse" gradientTransform="translate(63 63.6522) rotate(90) scale(16.9565 25.8973)">
<stop stop-color="white"/>
<stop offset="1" stop-color="white" stop-opacity="0"/>
</radialGradient>
<radialGradient id="paint7_radial_1_457" cx="0" cy="0" r="1" gradientUnits="userSpaceOnUse" gradientTransform="translate(63 64.087) rotate(90) scale(6.08696 4.66667)">
<stop stop-color="white"/>
<stop offset="1" stop-color="white" stop-opacity="0"/>
</radialGradient>
</defs>
</svg>
