<svg width="98" height="166" viewBox="0 0 98 166" fill="none" xmlns="http://www.w3.org/2000/svg">
<g filter="url(#filter0_di_1_489)">
<path d="M0.499756 0.878342C-0.671692 2.04979 -0.671692 3.94908 0.499756 5.12053L32.8282 37.449C33.5783 38.1991 33.9998 39.2165 33.9998 40.2774L33.9998 102.565C33.9998 105.3 35.0185 107.93 36.8455 109.948L37.2214 110.343L55.652 128.772C56.705 129.825 56.9998 131.39 56.9998 132.879C56.9999 137.297 60.5816 140.879 64.9998 140.879C69.4179 140.879 72.9996 137.297 72.9998 132.879C72.9998 128.461 69.418 124.879 64.9998 124.879C64.6699 124.879 64.3446 124.899 64.0252 124.938C62.2692 125.151 60.3437 124.979 59.093 123.728L41.4646 106.1L41.2937 105.92C40.4633 105.003 39.9998 103.808 39.9998 102.565L39.9998 44.3783C39.9998 42.1692 41.7906 40.3783 43.9998 40.3783H54.5044C56.2322 40.3783 57.6924 41.5635 58.7789 42.907C60.245 44.7199 62.4865 45.8793 64.9998 45.8793C69.4179 45.8793 72.9996 42.2974 72.9998 37.8793C72.9998 33.461 69.418 29.8793 64.9998 29.8793C62.733 29.8793 60.6868 30.8222 59.2314 32.3371C58.1717 33.4401 56.835 34.3783 55.3054 34.3783H39.8988C38.8379 34.3783 37.8205 33.9569 37.0704 33.2068L4.74194 0.878341C3.5705 -0.293106 1.6712 -0.293106 0.499756 0.878342Z" fill="#110A2B" fill-opacity="0.25" shape-rendering="crispEdges"/>
</g>
<g opacity="0.4">
<mask id="path-2-inside-1_1_489" fill="white">
<path d="M59.9998 38.0001C59.9998 35.2387 62.2383 33.0001 64.9998 33.0001C67.7612 33.0001 69.9998 35.2387 69.9998 38.0001C69.9998 40.7615 67.7612 43.0001 64.9998 43.0001C62.2383 43.0001 59.9998 40.7615 59.9998 38.0001Z"/>
</mask>
<path d="M59.9998 38.0001C59.9998 35.2387 62.2383 33.0001 64.9998 33.0001C67.7612 33.0001 69.9998 35.2387 69.9998 38.0001C69.9998 40.7615 67.7612 43.0001 64.9998 43.0001C62.2383 43.0001 59.9998 40.7615 59.9998 38.0001Z" fill="#D37252"/>
<path d="M59.9998 38.0001C59.9998 35.2387 62.2383 33.0001 64.9998 33.0001C67.7612 33.0001 69.9998 35.2387 69.9998 38.0001C69.9998 40.7615 67.7612 43.0001 64.9998 43.0001C62.2383 43.0001 59.9998 40.7615 59.9998 38.0001Z" fill="url(#paint0_radial_1_489)" style="mix-blend-mode:overlay"/>
<path d="M59.9998 37.0001C59.9998 34.2387 62.2383 32.0001 64.9998 32.0001C67.7612 32.0001 69.9998 34.2387 69.9998 37.0001V38.0001C69.9998 35.791 67.7612 34.0001 64.9998 34.0001C62.2383 34.0001 59.9998 35.791 59.9998 38.0001V37.0001ZM69.9998 39.0001C69.9998 41.7615 67.7612 44.0001 64.9998 44.0001C62.2383 44.0001 59.9998 41.7615 59.9998 39.0001V38.0001C59.9998 40.2093 62.2383 42.0001 64.9998 42.0001C67.7612 42.0001 69.9998 40.2093 69.9998 38.0001V39.0001ZM59.9998 43.0001V33.0001V43.0001ZM69.9998 33.0001V43.0001V33.0001Z" fill="white" fill-opacity="0.15" mask="url(#path-2-inside-1_1_489)"/>
</g>
<g opacity="0.3" filter="url(#filter1_f_1_489)">
<mask id="path-4-inside-2_1_489" fill="white">
<path d="M52.9998 133C52.9998 126.373 58.3723 121 64.9998 121C71.6272 121 76.9998 126.373 76.9998 133C76.9998 139.628 71.6272 145 64.9998 145C58.3723 145 52.9998 139.628 52.9998 133Z"/>
</mask>
<path d="M52.9998 133C52.9998 126.373 58.3723 121 64.9998 121C71.6272 121 76.9998 126.373 76.9998 133C76.9998 139.628 71.6272 145 64.9998 145C58.3723 145 52.9998 139.628 52.9998 133Z" fill="#D37252"/>
<path d="M52.9998 133C52.9998 126.373 58.3723 121 64.9998 121C71.6272 121 76.9998 126.373 76.9998 133C76.9998 139.628 71.6272 145 64.9998 145C58.3723 145 52.9998 139.628 52.9998 133Z" fill="url(#paint1_radial_1_489)" style="mix-blend-mode:overlay"/>
<path d="M52.9998 132C52.9998 125.373 58.3723 120 64.9998 120C71.6272 120 76.9998 125.373 76.9998 132V133C76.9998 126.925 71.6272 122 64.9998 122C58.3723 122 52.9998 126.925 52.9998 133V132ZM76.9998 134C76.9998 140.628 71.6272 146 64.9998 146C58.3723 146 52.9998 140.628 52.9998 134V133C52.9998 139.075 58.3723 144 64.9998 144C71.6272 144 76.9998 139.075 76.9998 133V134ZM52.9998 145V121V145ZM76.9998 121V145V121Z" fill="white" fill-opacity="0.15" mask="url(#path-4-inside-2_1_489)"/>
</g>
<mask id="path-6-inside-3_1_489" fill="white">
<path d="M59.9998 133C59.9998 130.239 62.2383 128 64.9998 128C67.7612 128 69.9998 130.239 69.9998 133C69.9998 135.762 67.7612 138 64.9998 138C62.2383 138 59.9998 135.762 59.9998 133Z"/>
</mask>
<path d="M59.9998 133C59.9998 130.239 62.2383 128 64.9998 128C67.7612 128 69.9998 130.239 69.9998 133C69.9998 135.762 67.7612 138 64.9998 138C62.2383 138 59.9998 135.762 59.9998 133Z" fill="#D37252"/>
<path d="M59.9998 133C59.9998 130.239 62.2383 128 64.9998 128C67.7612 128 69.9998 130.239 69.9998 133C69.9998 135.762 67.7612 138 64.9998 138C62.2383 138 59.9998 135.762 59.9998 133Z" fill="url(#paint2_radial_1_489)" style="mix-blend-mode:overlay"/>
<path d="M59.9998 132C59.9998 129.239 62.2383 127 64.9998 127C67.7612 127 69.9998 129.239 69.9998 132V133C69.9998 130.791 67.7612 129 64.9998 129C62.2383 129 59.9998 130.791 59.9998 133V132ZM69.9998 134C69.9998 136.762 67.7612 139 64.9998 139C62.2383 139 59.9998 136.762 59.9998 134V133C59.9998 135.209 62.2383 137 64.9998 137C67.7612 137 69.9998 135.209 69.9998 133V134ZM59.9998 138V128V138ZM69.9998 128V138V128Z" fill="white" fill-opacity="0.15" mask="url(#path-6-inside-3_1_489)"/>
<defs>
<filter id="filter0_di_1_489" x="-2.37885" y="-0.000244141" width="75.3786" height="142.88" filterUnits="userSpaceOnUse" color-interpolation-filters="sRGB">
<feFlood flood-opacity="0" result="BackgroundImageFix"/>
<feColorMatrix in="SourceAlpha" type="matrix" values="0 0 0 0 0 0 0 0 0 0 0 0 0 0 0 0 0 0 127 0" result="hardAlpha"/>
<feOffset dx="-1" dy="1"/>
<feGaussianBlur stdDeviation="0.5"/>
<feComposite in2="hardAlpha" operator="out"/>
<feColorMatrix type="matrix" values="0 0 0 0 1 0 0 0 0 1 0 0 0 0 1 0 0 0 0.08 0"/>
<feBlend mode="normal" in2="BackgroundImageFix" result="effect1_dropShadow_1_489"/>
<feBlend mode="normal" in="SourceGraphic" in2="effect1_dropShadow_1_489" result="shape"/>
<feColorMatrix in="SourceAlpha" type="matrix" values="0 0 0 0 0 0 0 0 0 0 0 0 0 0 0 0 0 0 127 0" result="hardAlpha"/>
<feOffset dx="-1"/>
<feGaussianBlur stdDeviation="1.5"/>
<feComposite in2="hardAlpha" operator="arithmetic" k2="-1" k3="1"/>
<feColorMatrix type="matrix" values="0 0 0 0 0.00547059 0 0 0 0 0.0187459 0 0 0 0 0.116098 0 0 0 0.6 0"/>
<feBlend mode="normal" in2="shape" result="effect2_innerShadow_1_489"/>
</filter>
<filter id="filter1_f_1_489" x="32.1998" y="100.2" width="65.6" height="65.6" filterUnits="userSpaceOnUse" color-interpolation-filters="sRGB">
<feFlood flood-opacity="0" result="BackgroundImageFix"/>
<feBlend mode="normal" in="SourceGraphic" in2="BackgroundImageFix" result="shape"/>
<feGaussianBlur stdDeviation="10.4" result="effect1_foregroundBlur_1_489"/>
</filter>
<radialGradient id="paint0_radial_1_489" cx="0" cy="0" r="1" gradientUnits="userSpaceOnUse" gradientTransform="translate(64.9998 40.0001) rotate(90) scale(9.30435 71.0517)">
<stop stop-color="white" stop-opacity="0"/>
<stop offset="1" stop-color="white"/>
</radialGradient>
<radialGradient id="paint1_radial_1_489" cx="0" cy="0" r="1" gradientUnits="userSpaceOnUse" gradientTransform="translate(64.9998 137.8) rotate(90) scale(22.3304 170.524)">
<stop stop-color="white" stop-opacity="0"/>
<stop offset="1" stop-color="white"/>
</radialGradient>
<radialGradient id="paint2_radial_1_489" cx="0" cy="0" r="1" gradientUnits="userSpaceOnUse" gradientTransform="translate(64.9998 135) rotate(90) scale(9.30435 71.0517)">
<stop stop-color="white" stop-opacity="0"/>
<stop offset="1" stop-color="white"/>
</radialGradient>
</defs>
</svg>
