<svg width="27" height="26" viewBox="0 0 27 26" fill="none" xmlns="http://www.w3.org/2000/svg">
<path fill-rule="evenodd" clip-rule="evenodd" d="M20.3918 1.67627C20.7503 1.67627 21.0587 1.93002 21.1278 2.28183C21.4795 4.07404 22.8873 5.49179 24.6128 5.83865C24.963 5.90906 25.215 6.21671 25.215 6.57394C25.215 6.93118 24.963 7.23883 24.6128 7.30923C22.8867 7.65622 21.479 9.07205 21.1274 10.8637C21.0583 11.2155 20.7499 11.4692 20.3914 11.4692C20.0329 11.4692 19.7245 11.2155 19.6554 10.8637C19.3038 9.07197 17.8964 7.6562 16.1704 7.30923C15.8202 7.23883 15.5683 6.93118 15.5683 6.57394C15.5683 6.21671 15.8202 5.90906 16.1704 5.83865C17.896 5.49177 19.3041 4.07395 19.6558 2.28183C19.7249 1.93002 20.0333 1.67627 20.3918 1.67627ZM13.8183 6.57394C13.8183 6.37319 13.8421 6.18836 13.8874 6C11.1866 6 8.4858 6 5.78502 6C3.57588 6 1.78503 7.79086 1.78503 10V21C1.78503 23.2091 3.57508 25 5.78422 25C8.96977 25 13.4161 25 16.6513 25C18.8605 25 20.6475 23.2091 20.6475 21V13.2062C20.5631 13.2148 20.4777 13.2192 20.3914 13.2192C19.1963 13.2192 18.1684 12.3734 17.9382 11.2007C17.7198 10.088 16.8415 9.22915 15.8255 9.02491C14.6581 8.79022 13.8183 7.76472 13.8183 6.57394ZM16.5683 17.7537L18.785 20.2639V21C18.785 22.1046 17.8896 23 16.785 23H5.78503C4.68046 23 3.78503 22.1046 3.78503 21V17.2224L6.1457 14.0843C6.15112 14.0771 6.15672 14.07 6.16251 14.0631C6.28045 13.9228 6.4115 13.7953 6.55524 13.6808C6.56008 13.6769 6.56499 13.6732 6.56998 13.6695C7.49761 12.9854 8.81104 13.1775 9.51163 14.0778L9.51312 14.0797L12.7067 18.2249L13.4082 17.542L13.4159 17.5345C13.4632 17.4883 13.5425 17.411 13.6426 17.3438C14.5674 16.6708 15.8692 16.8624 16.5683 17.7537Z" fill="white" fill-opacity="0.9"/>
<path d="M14.5223 5.50049L14.3739 6.1167C14.3372 6.26924 14.3182 6.41497 14.3182 6.57373C14.3182 7.52627 14.99 8.3468 15.9237 8.53467L16.1503 8.58936C17.268 8.90771 18.1879 9.87863 18.4286 11.104L18.4706 11.2769C18.7161 12.1244 19.495 12.7192 20.3915 12.7192C20.4607 12.7192 20.529 12.7154 20.5965 12.7085L21.1473 12.6528V21.0005C21.1471 23.4849 19.137 25.5005 16.6512 25.5005H5.78405C3.29888 25.5004 1.28529 23.4854 1.28503 21.0005V10.0005C1.28503 7.51521 3.29974 5.50049 5.78503 5.50049H14.5223ZM9.01159 14.2622C8.49381 13.7193 7.65178 13.5982 7.0028 13.9819L6.86706 14.0718C6.74935 14.1655 6.64107 14.2689 6.54479 14.3833L6.54577 14.3843L6.54479 14.3853L4.28503 17.3892V21.0005C4.28529 21.8287 4.95676 22.5005 5.78503 22.5005H16.785C17.6135 22.5005 18.285 21.8279 18.285 20.9995V20.4536L16.1932 18.0845L16.1835 18.0737L16.1747 18.062C15.6399 17.3805 14.6412 17.2356 13.9364 17.7485L13.9296 17.7534L13.9217 17.7593C13.8633 17.7985 13.8122 17.8465 13.7655 17.8921L13.7645 17.8931L13.7567 17.8999L13.0555 18.5835L12.6532 18.9751L12.3104 18.5298L9.11706 14.3853L9.01159 14.2622ZM20.3915 1.17627C20.9888 1.17627 21.5027 1.59901 21.618 2.18506L21.6883 2.48096C22.0904 3.93742 23.2845 5.06122 24.7118 5.34814L24.8192 5.37549C25.3459 5.53083 25.7146 6.0158 25.7147 6.57373C25.7147 7.1318 25.3461 7.61764 24.8192 7.77295L24.7118 7.79932C23.2836 8.08642 22.0893 9.20906 21.6874 10.6646L21.618 10.9604C21.5027 11.5465 20.9888 11.9692 20.3915 11.9692C19.7941 11.9692 19.2802 11.5466 19.1649 10.9604V10.9595C18.8709 9.462 17.7484 8.26392 16.3544 7.86768L16.0721 7.79932C15.4884 7.68197 15.0682 7.16905 15.0682 6.57373C15.0683 5.9785 15.4885 5.46549 16.0721 5.34814L16.3544 5.27979C17.748 4.88336 18.8709 3.6833 19.1649 2.18506L19.1913 2.07764C19.3447 1.54812 19.8314 1.1764 20.3915 1.17627Z" stroke="black" stroke-opacity="0.1"/>
</svg>
