<svg width="34" height="35" viewBox="0 0 34 35" fill="none" xmlns="http://www.w3.org/2000/svg">
<path fill-rule="evenodd" clip-rule="evenodd" d="M13.5568 25.9617L6.3294 20.3156C4.80611 19.1256 4.53593 16.9261 5.72592 15.4028C6.91592 13.8795 9.11546 13.6093 10.6387 14.7993L17.8661 20.4454C18.8602 20.4283 19.8664 20.739 20.7109 21.3987C22.6694 22.9287 23.0168 25.7567 21.4868 27.7152C19.9568 29.6737 17.1288 30.0211 15.1703 28.4911C14.3258 27.8314 13.7808 26.9303 13.5568 25.9617ZM13.6727 23.5143C13.8309 23.0425 14.0706 22.5891 14.3944 22.1746C14.7182 21.7601 15.1001 21.4178 15.5196 21.1502L9.4075 16.3754C8.75467 15.8654 7.812 15.9812 7.30201 16.634C6.79201 17.2869 6.9078 18.2295 7.56064 18.7395L13.6727 23.5143Z" fill="url(#paint0_linear_1_528)"/>
<path fill-rule="evenodd" clip-rule="evenodd" d="M13.2736 13.0508C14.1182 13.7105 15.1243 14.0212 16.1184 14.0042L23.3458 19.6502C24.869 20.8402 27.0686 20.57 28.2586 19.0467C29.4486 17.5234 29.1784 15.3239 27.6551 14.1339L20.4277 8.48786C20.2037 7.51922 19.6587 6.61816 18.8142 5.95843C16.8557 4.42843 14.0277 4.77581 12.4978 6.73432C10.9678 8.69283 11.3151 11.5208 13.2736 13.0508ZM19.5901 12.2749C19.2663 12.6894 18.8844 13.0317 18.4649 13.2993L24.577 18.0741C25.2298 18.5841 26.1725 18.4683 26.6825 17.8155C27.1925 17.1626 27.0767 16.22 26.4239 15.71L20.3118 10.9352C20.1536 11.407 19.9139 11.8604 19.5901 12.2749Z" fill="url(#paint1_linear_1_528)"/>
<path d="M13.5815 12.6568C14.3324 13.2434 15.2258 13.519 16.1094 13.5039L16.2865 13.501L23.6536 19.2562C24.9593 20.2762 26.8446 20.0446 27.8646 18.7389C28.8846 17.4333 28.653 15.5479 27.3473 14.5279L19.9802 8.77273L19.9402 8.60023C19.741 7.73922 19.2574 6.93908 18.5064 6.35245C16.7655 4.99245 14.2518 5.30124 12.8918 7.04213C11.5318 8.78303 11.8406 11.2968 13.5815 12.6568ZM18.1962 12.8775C18.5684 12.64 18.9078 12.3361 19.1961 11.9671C19.4844 11.5981 19.6971 11.1952 19.8374 10.7766L20.0626 10.1061L26.7317 15.316C27.6021 15.996 27.7565 17.2529 27.0765 18.1233C26.3965 18.9938 25.1397 19.1481 24.2692 18.4682L17.6001 13.2582L18.1962 12.8775ZM15.4781 28.0971C17.219 29.4571 19.7328 29.1483 21.0927 27.4074C22.4527 25.6665 22.144 23.1527 20.4031 21.7927C19.6521 21.2061 18.7587 20.9305 17.8751 20.9456L17.6981 20.9485L10.3309 15.1933C9.02526 14.1733 7.13994 14.4049 6.11994 15.7106C5.09995 17.0163 5.33154 18.9016 6.63721 19.9216L14.0043 25.6768L14.0443 25.8493C14.2435 26.7103 14.7272 27.5104 15.4781 28.0971ZM7.25283 19.1335C6.38238 18.4535 6.22799 17.1967 6.90799 16.3262C7.58798 15.4558 8.84487 15.3014 9.71531 15.9814L16.3844 21.1913L15.7883 21.572C15.4161 21.8095 15.0767 22.1134 14.7884 22.4824C14.5001 22.8515 14.2875 23.2543 14.1471 23.673L13.9219 24.3435L7.25283 19.1335Z" stroke="white" stroke-opacity="0.2"/>
<defs>
<linearGradient id="paint0_linear_1_528" x1="-2.69215" y1="20.9525" x2="35.0202" y2="10.7536" gradientUnits="userSpaceOnUse">
<stop stop-color="#F5F1FF"/>
<stop offset="1" stop-color="#6633EE"/>
</linearGradient>
<linearGradient id="paint1_linear_1_528" x1="-2.69215" y1="20.9525" x2="35.0202" y2="10.7536" gradientUnits="userSpaceOnUse">
<stop stop-color="#F5F1FF"/>
<stop offset="1" stop-color="#6633EE"/>
</linearGradient>
</defs>
</svg>
