<svg width="35" height="35" viewBox="0 0 35 35" fill="none" xmlns="http://www.w3.org/2000/svg">
<path fill-rule="evenodd" clip-rule="evenodd" d="M25.5931 10.5548C21.8531 5.76736 14.9403 4.91821 10.1528 8.65819C5.36536 12.3982 4.51621 19.311 8.25619 24.0985C11.9962 28.8859 18.909 29.7351 23.6965 25.9951C28.484 22.2551 29.3331 15.3423 25.5931 10.5548ZM13.8747 13.8233L22.0469 13.3251L18.1067 16.4032L20.5564 19.539C20.8598 19.9274 21.0115 20.1216 21.0134 20.2906C21.0151 20.4378 20.9518 20.5782 20.8404 20.6745C20.7126 20.785 20.4666 20.8 19.9746 20.83L11.8024 21.3282L15.7426 18.2501L13.2929 15.1143C12.9895 14.7259 12.8378 14.5317 12.8359 14.3627C12.8342 14.2155 12.8975 14.0751 13.0089 13.9788C13.1367 13.8683 13.3827 13.8533 13.8747 13.8233Z" fill="url(#paint0_linear_1_530)"/>
<path d="M25.1991 10.8626C28.7691 15.4325 27.9585 22.0311 23.3887 25.6011C18.8188 29.1711 12.2202 28.3605 8.65022 23.7907C5.08023 19.2208 5.89079 12.6222 10.4606 9.05221C15.0305 5.48223 21.6291 6.29278 25.1991 10.8626ZM22.0164 12.826L13.8438 13.3242C13.6079 13.3386 13.3961 13.3511 13.2292 13.3767C13.0881 13.3984 12.9085 13.438 12.7489 13.5487L12.682 13.601C12.4871 13.7695 12.366 14.0054 12.341 14.259L12.3359 14.3683C12.3385 14.5991 12.4425 14.79 12.5309 14.9273C12.6223 15.0692 12.7533 15.2358 12.8987 15.4219L15.0408 18.1639L10.2263 21.9249L11.8329 21.8273L20.0056 21.3291C20.2414 21.3147 20.4532 21.3022 20.6201 21.2766C20.7612 21.2549 20.9408 21.2152 21.1004 21.1046L21.1673 21.0523L21.2469 20.9765C21.3954 20.8164 21.4869 20.6116 21.5084 20.3943L21.5134 20.285C21.5108 20.0542 21.4068 19.8633 21.3184 19.726C21.227 19.5841 21.096 19.4176 20.9506 19.2314L18.8086 16.4894L23.623 12.7284L22.0164 12.826Z" stroke="white" stroke-opacity="0.19"/>
<defs>
<linearGradient id="paint0_linear_1_530" x1="18.0376" y1="8.9526" x2="30.4402" y2="34.049" gradientUnits="userSpaceOnUse">
<stop stop-color="#FFB366"/>
<stop offset="0.489583" stop-color="#E9766F"/>
<stop offset="1" stop-color="#C04350"/>
</linearGradient>
</defs>
</svg>
